<svg viewBox="0 0 100 100" xmlns="http://www.w3.org/2000/svg">
  <line x1="50" y1="50" x2="28" y2="32" stroke="#3b82f6" stroke-width="3" stroke-linecap="round"/>
  <line x1="50" y1="50" x2="22" y2="48" stroke="#2563eb" stroke-width="3" stroke-linecap="round"/>
  <line x1="50" y1="50" x2="28" y2="68" stroke="#60a5fa" stroke-width="3" stroke-linecap="round"/>
  <line x1="50" y1="50" x2="38" y2="78" stroke="#3b82f6" stroke-width="2" stroke-linecap="round"/>
  <line x1="50" y1="50" x2="72" y2="32" stroke="#10b981" stroke-width="3" stroke-linecap="round"/>
  <line x1="50" y1="50" x2="78" y2="48" stroke="#059669" stroke-width="3" stroke-linecap="round"/>
  <line x1="50" y1="50" x2="72" y2="68" stroke="#34d399" stroke-width="3" stroke-linecap="round"/>
  <line x1="50" y1="50" x2="62" y2="78" stroke="#10b981" stroke-width="2" stroke-linecap="round"/>
  <circle cx="28" cy="32" r="5" fill="#3b82f6"/>
  <circle cx="22" cy="48" r="4" fill="#2563eb"/>
  <circle cx="28" cy="68" r="5" fill="#60a5fa"/>
  <circle cx="38" cy="78" r="3" fill="#93c5fd"/>
  <circle cx="72" cy="32" r="5" fill="#10b981"/>
  <circle cx="78" cy="48" r="4" fill="#059669"/>
  <circle cx="72" cy="68" r="5" fill="#34d399"/>
  <circle cx="62" cy="78" r="3" fill="#6ee7b7"/>
  <line x1="50" y1="50" x2="50" y2="22" stroke="#06b6d4" stroke-width="2" stroke-linecap="round"/>
  <circle cx="50" cy="18" r="4" fill="#22d3ee"/>
  <circle cx="50" cy="50" r="10" fill="#06b6d4"/>
  <circle cx="50" cy="50" r="5" fill="#0891b2"/>
</svg>
